<svg preserveAspectRatio="none" width="100%" height="100%" overflow="visible" style="display: block;" viewBox="0 0 22 22" fill="none" xmlns="http://www.w3.org/2000/svg">
<g id="Group">
<path id="Vector" d="M11.025 0H10.975C4.91365 0 0 4.91365 0 10.975V11.025C0 17.0863 4.91365 22 10.975 22H11.025C17.0863 22 22 17.0863 22 11.025V10.975C22 4.91365 17.0863 0 11.025 0Z" fill="var(--fill-0, #35383B)"/>
<g id="Group_2">
<path id="Vector_2" d="M14.4041 4.47585H7.5967C5.71603 4.47585 4.18606 6.00582 4.18606 7.88649V14.1143C4.18606 15.995 5.71603 17.5249 7.5967 17.5249H14.4041C16.2848 17.5249 17.8148 15.995 17.8148 14.1143V7.88649C17.8148 6.00582 16.2848 4.47585 14.4041 4.47585ZM5.38923 7.88649C5.38923 6.66945 6.37966 5.67901 7.5967 5.67901H14.4041C15.6212 5.67901 16.6116 6.66945 16.6116 7.88649V14.1143C16.6116 15.3313 15.6212 16.3218 14.4041 16.3218H7.5967C6.37966 16.3218 5.38923 15.3313 5.38923 14.1143V7.88649Z" fill="var(--fill-0, white)"/>
<path id="Vector_3" d="M11.0002 14.1721C12.7491 14.1721 14.1727 12.7493 14.1727 10.9996C14.1727 9.24997 12.7499 7.82714 11.0002 7.82714C9.25059 7.82714 7.82776 9.24997 7.82776 10.9996C7.82776 12.7493 9.25059 14.1721 11.0002 14.1721ZM11.0002 9.03108C12.0862 9.03108 12.9695 9.91438 12.9695 11.0004C12.9695 12.0864 12.0862 12.9697 11.0002 12.9697C9.91422 12.9697 9.03092 12.0864 9.03092 11.0004C9.03092 9.91438 9.91422 9.03108 11.0002 9.03108Z" fill="var(--fill-0, white)"/>
<path id="Vector_4" d="M14.4662 8.3397C14.937 8.3397 15.3207 7.95663 15.3207 7.48492C15.3207 7.01321 14.9378 6.63013 14.4662 6.63013C13.9946 6.63013 13.6117 7.01321 13.6117 7.48492C13.6117 7.95663 13.9946 8.3397 14.4662 8.3397Z" fill="var(--fill-0, white)"/>
</g>
</g>
</svg>
