<svg preserveAspectRatio="none" width="100%" height="100%" overflow="visible" style="display: block;" viewBox="0 0 5.17932 9.6174" fill="none" xmlns="http://www.w3.org/2000/svg">
<path id="Vector" fill-rule="evenodd" clip-rule="evenodd" d="M5.07066 0.108659C5.1051 0.143016 5.13243 0.18383 5.15107 0.228764C5.16972 0.273698 5.17932 0.321869 5.17932 0.370518C5.17932 0.419167 5.16972 0.467338 5.15107 0.512272C5.13243 0.557206 5.1051 0.59802 5.07066 0.632377L0.893495 4.8088L5.07066 8.98522C5.14011 9.05467 5.17912 9.14886 5.17912 9.24708C5.17912 9.3453 5.14011 9.43949 5.07066 9.50894C5.00121 9.57839 4.90701 9.6174 4.8088 9.6174C4.71058 9.6174 4.61639 9.57839 4.54694 9.50894L0.108659 5.07066C0.0742156 5.0363 0.0468884 4.99549 0.0282429 4.95055C0.00959732 4.90562 0 4.85745 0 4.8088C0 4.76015 0.00959732 4.71198 0.0282429 4.66705C0.0468884 4.62211 0.0742156 4.5813 0.108659 4.54694L4.54694 0.108659C4.5813 0.0742159 4.62211 0.0468888 4.66704 0.0282432C4.71198 0.00959768 4.76015 0 4.8088 0C4.85745 0 4.90562 0.00959768 4.95055 0.0282432C4.99549 0.0468888 5.0363 0.0742159 5.07066 0.108659V0.108659Z" fill="var(--fill-0, white)"/>
</svg>
