<svg preserveAspectRatio="none" width="100%" height="100%" overflow="visible" style="display: block;" viewBox="0 0 8.75223 16.2519" fill="none" xmlns="http://www.w3.org/2000/svg">
<path id="Vector" fill-rule="evenodd" clip-rule="evenodd" d="M8.56862 0.183617C8.62682 0.241674 8.673 0.310644 8.70451 0.386575C8.73601 0.462507 8.75223 0.543908 8.75223 0.626117C8.75223 0.708326 8.73601 0.789728 8.70451 0.865659C8.673 0.941591 8.62682 1.01056 8.56862 1.06862L1.50987 8.12612L8.56862 15.1836C8.68597 15.301 8.75191 15.4601 8.75191 15.6261C8.75191 15.7921 8.68597 15.9513 8.56862 16.0686C8.45126 16.186 8.29209 16.2519 8.12612 16.2519C7.96015 16.2519 7.80097 16.186 7.68362 16.0686L0.183617 8.56862C0.125413 8.51056 0.0792341 8.44159 0.047726 8.36566C0.016218 8.28973 0 8.20833 0 8.12612C0 8.04391 0.016218 7.96251 0.047726 7.88658C0.0792341 7.81064 0.125413 7.74167 0.183617 7.68362L7.68362 0.183617C7.74167 0.125413 7.81064 0.0792347 7.88657 0.0477266C7.96251 0.0162186 8.04391 0 8.12612 0C8.20833 0 8.28973 0.0162186 8.36566 0.0477266C8.44159 0.0792347 8.51056 0.125413 8.56862 0.183617V0.183617Z" fill="var(--fill-0, white)"/>
</svg>
