<svg preserveAspectRatio="none" width="100%" height="100%" overflow="visible" style="display: block;" viewBox="0 0 22 22" fill="none" xmlns="http://www.w3.org/2000/svg">
<g id="Group">
<path id="Vector" d="M21.9985 11.0004C21.9985 16.5561 17.8804 21.1491 12.5307 21.8944C12.0305 21.9638 11.5187 22 10.9992 22C10.3996 22 9.81075 21.9522 9.23732 21.8597C4.00014 21.0165 0 16.4751 0 11.0004C0 4.9252 4.92503 0 11 0C17.075 0 22 4.9252 22 11.0004H21.9985Z" fill="var(--fill-0, #35383B)"/>
<path id="Vector_2" d="M12.5308 8.83299V11.2293H15.4951L15.0257 14.4573H12.5308V21.8944C12.0306 21.9638 11.5188 22 10.9994 22C10.3997 22 9.81088 21.9522 9.23745 21.8597V14.4573H6.50364V11.2293H9.23745V8.29731C9.23745 6.4783 10.7119 5.00305 12.5316 5.00305V5.00459C12.537 5.00459 12.5416 5.00305 12.547 5.00305H15.4959V7.79477H13.569C12.9964 7.79477 12.5316 8.25955 12.5316 8.83223L12.5308 8.83299Z" fill="var(--fill-0, white)"/>
</g>
</svg>
