<svg preserveAspectRatio="none" width="100%" height="100%" overflow="visible" style="display: block;" viewBox="0 0 5.17932 9.6174" fill="none" xmlns="http://www.w3.org/2000/svg">
<path id="Vector" fill-rule="evenodd" clip-rule="evenodd" d="M0.108659 0.108659C0.143016 0.0742159 0.18383 0.0468888 0.228764 0.0282432C0.273698 0.00959768 0.321869 0 0.370518 0C0.419167 0 0.467338 0.00959768 0.512272 0.0282432C0.557206 0.0468888 0.59802 0.0742159 0.632376 0.108659L5.07066 4.54694C5.1051 4.5813 5.13243 4.62211 5.15107 4.66705C5.16972 4.71198 5.17932 4.76015 5.17932 4.8088C5.17932 4.85745 5.16972 4.90562 5.15107 4.95055C5.13243 4.99549 5.1051 5.0363 5.07066 5.07066L0.632376 9.50894C0.562927 9.57839 0.468734 9.6174 0.370518 9.6174C0.272302 9.6174 0.178108 9.57839 0.108659 9.50894C0.0392099 9.43949 0.000193645 9.3453 0.000193645 9.24708C0.000193645 9.14886 0.0392099 9.05467 0.108659 8.98522L4.28582 4.8088L0.108659 0.632377C0.0742156 0.59802 0.0468884 0.557206 0.0282429 0.512272C0.00959732 0.467338 0 0.419167 0 0.370518C0 0.321869 0.00959732 0.273698 0.0282429 0.228764C0.0468884 0.18383 0.0742156 0.143016 0.108659 0.108659V0.108659Z" fill="var(--fill-0, white)"/>
</svg>
