<svg preserveAspectRatio="none" width="100%" height="100%" overflow="visible" style="display: block;" viewBox="0 0 43.4109 43.4109" fill="none" xmlns="http://www.w3.org/2000/svg">
<g id="youtube 1" clip-path="url(#clip0_52613_10081)">
<path id="Vector" d="M42.5168 11.2846C42.0164 9.42489 40.5502 7.95902 38.6909 7.45825C35.2938 6.52858 21.7054 6.52858 21.7054 6.52858C21.7054 6.52858 8.11738 6.52858 4.72029 7.42281C2.89672 7.92325 1.39474 9.42523 0.894302 11.2846C0.000401075 14.6813 0.000401075 21.7259 0.000401075 21.7259C0.000401075 21.7259 0.000401075 28.8059 0.894302 32.1672C1.39507 34.0265 2.86095 35.4928 4.72062 35.9935C8.15315 36.9232 21.7057 36.9232 21.7057 36.9232C21.7057 36.9232 35.2938 36.9232 38.6909 36.029C40.5505 35.5285 42.0164 34.0623 42.5172 32.203C43.4111 28.8059 43.4111 21.7617 43.4111 21.7617C43.4111 21.7617 43.4468 14.6813 42.5168 11.2846Z" fill="var(--fill-0, #FF0000)"/>
<path id="Vector_2" d="M17.379 28.2339L28.6785 21.7259L17.379 15.2179V28.2339Z" fill="var(--fill-0, white)"/>
</g>
<defs>
<clipPath id="clip0_52613_10081">
<rect width="43.4109" height="43.4109" fill="white"/>
</clipPath>
</defs>
</svg>
