<svg preserveAspectRatio="none" width="100%" height="100%" overflow="visible" style="display: block;" viewBox="0 0 12.0025 11.9966" fill="none" xmlns="http://www.w3.org/2000/svg">
<path id="Container" d="M6.00076 0.00634902C6.18346 -0.0189979 6.37564 0.0311109 6.52322 0.164552L11.7898 4.93213C12.0535 5.17075 12.0749 5.57743 11.8377 5.84229C11.5987 6.10879 11.1881 6.13038 10.9226 5.89014L10.4969 5.5044V10.9966C10.4966 11.5485 10.0488 11.9963 9.49685 11.9966H2.47537C1.92323 11.9966 1.47561 11.5487 1.47537 10.9966V5.53174L1.07986 5.89014C0.814411 6.13037 0.403844 6.10876 0.164822 5.84229C-0.0724508 5.57742 -0.0509851 5.17074 0.212674 4.93213L5.47928 0.164552C5.62661 0.0313532 5.81835 -0.0186993 6.00076 0.00634902ZM2.76443 4.36475V10.7007H9.20779V4.3374L6.00076 1.43506L2.76443 4.36475Z" fill="var(--fill-0, #5F6368)"/>
</svg>
