<svg preserveAspectRatio="none" width="100%" height="100%" overflow="visible" style="display: block;" viewBox="0 0 19.9996 20" fill="none" xmlns="http://www.w3.org/2000/svg">
<g id="Group">
<path id="Vector" d="M15.2052 13.2304C14.5517 12.5853 13.736 12.5853 13.0868 13.2304C12.5915 13.7215 12.0963 14.2126 11.6093 14.712C11.4762 14.8493 11.3638 14.8785 11.2015 14.7869C10.881 14.6121 10.5398 14.4706 10.2318 14.2792C8.79596 13.3761 7.5932 12.2149 6.52778 10.9081C5.99923 10.2589 5.52894 9.56384 5.20016 8.78142C5.13357 8.62327 5.14605 8.51923 5.27507 8.39021C5.77033 7.9116 6.2531 7.42051 6.74003 6.92942C7.4184 6.24688 7.4184 5.44781 6.73587 4.76111C6.34882 4.3699 5.96177 3.98702 5.57472 3.5958C5.17519 3.19627 4.77982 2.79258 4.37612 2.3972C3.72272 1.76045 2.907 1.76045 2.25776 2.40137C1.75834 2.89246 1.27973 3.39604 0.771991 3.87881C0.301707 4.32412 0.0644835 4.86932 0.0145418 5.50608C-0.0645326 6.54237 0.189338 7.52039 0.547254 8.47345C1.27973 10.4461 2.3951 12.1983 3.74769 13.8047C5.57472 15.9772 7.75551 17.696 10.3067 18.9362C11.4554 19.4939 12.6456 19.9226 13.94 19.9933C14.8306 20.0433 15.6047 19.8185 16.2248 19.1235C16.6493 18.6491 17.1279 18.2162 17.5774 17.7626C18.2433 17.0884 18.2474 16.2727 17.5857 15.6068C16.795 14.8119 16.0001 14.0211 15.2052 13.2304Z" fill="var(--fill-0, white)"/>
<path id="Vector_2" d="M14.4102 9.91343L15.946 9.65124C15.7046 8.24039 15.0387 6.96271 14.0274 5.94723C12.9578 4.87764 11.6052 4.20343 10.1153 3.99534L9.89884 5.53937C11.0517 5.70168 12.1004 6.22191 12.9286 7.05011C13.7111 7.83253 14.223 8.82304 14.4102 9.91343Z" fill="var(--fill-0, white)"/>
<path id="Vector_3" d="M16.8116 3.23789C15.0387 1.46496 12.7955 0.34543 10.3192 0L10.1028 1.54403C12.2419 1.84368 14.1813 2.81338 15.7129 4.34077C17.1654 5.79324 18.1184 7.6286 18.4639 9.64708L19.9996 9.38488C19.5959 7.04595 18.493 4.92342 16.8116 3.23789Z" fill="var(--fill-0, white)"/>
</g>
</svg>
