<svg preserveAspectRatio="none" width="100%" height="100%" overflow="visible" style="display: block;" viewBox="0 0 6.40039 8" fill="none" xmlns="http://www.w3.org/2000/svg">
<path id="Union" d="M3.2793 0C4.47922 0.000128978 5.45215 0.99543 5.45215 2.22266V2.60938C5.99304 2.72173 6.40035 3.21152 6.40039 3.79785V6.78809C6.40027 7.45742 5.86933 8 5.21484 8H1.18555C0.53106 8 0.000121907 7.45742 0 6.78809V3.79785C4.59729e-05 3.15552 0.488637 2.63033 1.10645 2.58887V2.22266C1.10645 0.99535 2.07927 0 3.2793 0ZM3.2793 0.969727C2.60292 0.969727 2.05469 1.5309 2.05469 2.22266V2.58594H4.50391V2.22266C4.50391 1.53098 3.95557 0.969856 3.2793 0.969727Z" fill="var(--fill-0, #8A8A8E)"/>
</svg>
