<svg preserveAspectRatio="none" width="100%" height="100%" overflow="visible" style="display: block;" viewBox="0 0 32 32" fill="none" xmlns="http://www.w3.org/2000/svg">
<g id="LINE_LOGO" clip-path="url(#clip0_52611_10003)">
<path id="Vector" d="M16 32C24.8366 32 32 24.8366 32 16C32 7.16344 24.8366 0 16 0C7.16344 0 0 7.16344 0 16C0 24.8366 7.16344 32 16 32Z" fill="var(--fill-0, #35383B)"/>
<g id="Group">
<path id="Vector_2" d="M26.67 15.068C26.67 10.288 21.878 6.39996 15.989 6.39996C10.1 6.39996 5.30802 10.289 5.30802 15.068C5.30802 19.353 9.10802 22.941 14.241 23.62C14.589 23.695 15.062 23.849 15.182 24.147C15.29 24.417 15.252 24.84 15.217 25.113C15.217 25.113 15.092 25.867 15.065 26.027C15.018 26.297 14.85 27.083 15.99 26.603C17.13 26.123 22.141 22.981 24.382 20.402C25.93 18.704 26.672 16.982 26.672 15.069L26.67 15.068Z" fill="var(--fill-0, white)"/>
<g id="Group_2">
<path id="Vector_3" d="M23.1168 17.8281C23.2298 17.8281 23.3208 17.7371 23.3208 17.6241V16.8661C23.3208 16.7541 23.2288 16.6621 23.1168 16.6621H21.0778V15.8751H23.1168C23.2298 15.8751 23.3208 15.7841 23.3208 15.6711V14.9141C23.3208 14.8021 23.2288 14.7101 23.1168 14.7101H21.0778V13.9231H23.1168C23.2298 13.9231 23.3208 13.8321 23.3208 13.7191V12.9621C23.3208 12.8501 23.2288 12.7581 23.1168 12.7581H20.1158C20.0028 12.7581 19.9118 12.8491 19.9118 12.9621V12.9661V17.6201V17.6241C19.9118 17.7371 20.0028 17.8281 20.1158 17.8281H23.1168Z" fill="var(--fill-0, #35383B)"/>
<path id="Vector_4" d="M12.0168 17.8281C12.1298 17.8281 12.2208 17.7371 12.2208 17.6241V16.8661C12.2208 16.7541 12.1288 16.6621 12.0168 16.6621H9.97785V12.9621C9.97785 12.8501 9.88585 12.7581 9.77385 12.7581H9.01585C8.90285 12.7581 8.81185 12.8491 8.81185 12.9621V17.6201V17.6241C8.81185 17.7371 8.90285 17.8281 9.01585 17.8281H12.0168Z" fill="var(--fill-0, #35383B)"/>
<path id="Vector_5" d="M13.8227 12.7581H13.0657C12.953 12.7581 12.8617 12.8494 12.8617 12.9621V17.6231C12.8617 17.7357 12.953 17.8271 13.0657 17.8271H13.8227C13.9353 17.8271 14.0267 17.7357 14.0267 17.6231V12.9621C14.0267 12.8494 13.9353 12.7581 13.8227 12.7581Z" fill="var(--fill-0, #35383B)"/>
<path id="Vector_6" d="M18.9798 12.7581H18.2218C18.1088 12.7581 18.0178 12.8491 18.0178 12.9621V15.7311L15.8848 12.8511C15.8798 12.8441 15.8738 12.8371 15.8688 12.8301C15.8688 12.8301 15.8688 12.8301 15.8678 12.8291C15.8638 12.8251 15.8598 12.8201 15.8558 12.8161C15.8548 12.8151 15.8528 12.8141 15.8518 12.8131C15.8478 12.8101 15.8448 12.8071 15.8408 12.8041C15.8388 12.8031 15.8368 12.8011 15.8348 12.8001C15.8318 12.7971 15.8278 12.7951 15.8238 12.7931C15.8218 12.7921 15.8198 12.7901 15.8178 12.7891C15.8138 12.7871 15.8108 12.7851 15.8068 12.7831C15.8048 12.7821 15.8028 12.7811 15.8008 12.7801C15.7968 12.7781 15.7928 12.7761 15.7888 12.7751C15.7868 12.7751 15.7848 12.7731 15.7818 12.7731C15.7778 12.7721 15.7738 12.7701 15.7698 12.7691C15.7678 12.7691 15.7648 12.7681 15.7628 12.7671C15.7588 12.7671 15.7548 12.7651 15.7508 12.7641C15.7478 12.7641 15.7448 12.7641 15.7418 12.7631C15.7378 12.7631 15.7348 12.7621 15.7308 12.7621C15.7268 12.7621 15.7238 12.7621 15.7198 12.7621C15.7178 12.7621 15.7148 12.7621 15.7128 12.7621H14.9598C14.8468 12.7621 14.7558 12.8531 14.7558 12.9661V17.6281C14.7558 17.7411 14.8468 17.8321 14.9598 17.8321H15.7178C15.8308 17.8321 15.9218 17.7411 15.9218 17.6281V14.8601L18.0568 17.7441C18.0718 17.7651 18.0898 17.7821 18.1098 17.7951C18.1098 17.7951 18.1118 17.7961 18.1118 17.7971C18.1158 17.8001 18.1198 17.8021 18.1248 17.8051C18.1268 17.8061 18.1288 17.8071 18.1308 17.8081C18.1338 17.8101 18.1378 17.8111 18.1408 17.8131C18.1438 17.8151 18.1478 17.8161 18.1508 17.8171C18.1528 17.8171 18.1548 17.8191 18.1568 17.8191C18.1618 17.8211 18.1658 17.8221 18.1708 17.8231C18.1708 17.8231 18.1728 17.8231 18.1738 17.8231C18.1908 17.8271 18.2088 17.8301 18.2268 17.8301H18.9798C19.0928 17.8301 19.1838 17.7391 19.1838 17.6261V12.9641C19.1838 12.8511 19.0928 12.7601 18.9798 12.7601V12.7581Z" fill="var(--fill-0, #35383B)"/>
</g>
</g>
</g>
<defs>
<clipPath id="clip0_52611_10003">
<rect width="32" height="32" fill="white"/>
</clipPath>
</defs>
</svg>
