<svg preserveAspectRatio="none" width="100%" height="100%" overflow="visible" style="display: block;" viewBox="0 0 20 20" fill="none" xmlns="http://www.w3.org/2000/svg">
<path id="Union" fill-rule="evenodd" clip-rule="evenodd" d="M16.9304 15.7991C18.3463 14.1265 19.2 11.963 19.2 9.6C19.2 4.29807 14.9019 0 9.6 0C4.29807 0 0 4.29807 0 9.6C0 14.9019 4.29807 19.2 9.6 19.2C11.963 19.2 14.1265 18.3463 15.7991 16.9304L18.6343 19.7657C18.9467 20.0781 19.4533 20.0781 19.7657 19.7657C20.0781 19.4533 20.0781 18.9467 19.7657 18.6343L16.9304 15.7991ZM17.6 9.6C17.6 14.0183 14.0183 17.6 9.6 17.6C5.18172 17.6 1.6 14.0183 1.6 9.6C1.6 5.18172 5.18172 1.6 9.6 1.6C14.0183 1.6 17.6 5.18172 17.6 9.6Z" fill="var(--fill-0, black)"/>
</svg>
