<svg preserveAspectRatio="none" width="100%" height="100%" overflow="visible" style="display: block;" viewBox="0 0 32 32" fill="none" xmlns="http://www.w3.org/2000/svg">
<g id="Group">
<path id="Vector" d="M31.9978 16.0006C31.9978 24.0816 26.0078 30.7623 18.2265 31.8464C17.4989 31.9473 16.7545 32 15.9989 32C15.1267 32 14.2702 31.9305 13.4361 31.796C5.81839 30.5695 0 23.9638 0 16.0006C0 7.16393 7.16368 0 16 0C24.8363 0 32 7.16393 32 16.0006H31.9978Z" fill="var(--fill-0, #35383B)"/>
<path id="Vector_2" d="M18.2266 12.8477V16.3333H22.5382L21.8555 21.0285H18.2266V31.8462C17.499 31.9471 16.7546 31.9998 15.999 31.9998C15.1268 31.9998 14.2703 31.9303 13.4362 31.7957V21.0285H9.45977V16.3333H13.4362V12.0686C13.4362 9.42273 15.5808 7.27691 18.2277 7.27691V7.27915C18.2356 7.27915 18.2423 7.27691 18.2501 7.27691H22.5394V11.3376H19.7367C18.9037 11.3376 18.2277 12.0136 18.2277 12.8466L18.2266 12.8477Z" fill="var(--fill-0, white)"/>
</g>
</svg>
