<svg preserveAspectRatio="none" width="100%" height="100%" overflow="visible" style="display: block;" viewBox="0 0 22 22" fill="none" xmlns="http://www.w3.org/2000/svg">
<g id="Group">
<path id="Vector" d="M11.0251 0H10.9749C4.91365 0 0 4.91365 0 10.975V11.025C0 17.0863 4.91365 22 10.9749 22H11.0251C17.0863 22 22 17.0863 22 11.025V10.975C22 4.91365 17.0863 0 11.0251 0Z" fill="var(--fill-0, #35383B)"/>
<path id="Vector_2" d="M16.3183 7.95894V10.0362C15.9553 10.0007 15.4836 9.91823 14.9618 9.72708C14.2804 9.47736 13.7732 9.1359 13.441 8.87153V13.0699L13.4326 13.0568C13.438 13.14 13.441 13.2248 13.441 13.3104C13.441 15.3953 11.7446 17.0925 9.65888 17.0925C7.57319 17.0925 5.87673 15.3953 5.87673 13.3104C5.87673 11.2255 7.57319 9.52745 9.65888 9.52745C9.86313 9.52745 10.0635 9.54364 10.2593 9.57524V11.6224C10.0712 11.5553 9.8693 11.5191 9.65888 11.5191C8.67153 11.5191 7.86762 12.3223 7.86762 13.3104C7.86762 14.2985 8.67153 15.1016 9.65888 15.1016C10.6462 15.1016 11.4501 14.2977 11.4501 13.3104C11.4501 13.2734 11.4494 13.2364 11.4471 13.1994V5.04082H13.5227C13.5304 5.21655 13.5374 5.39383 13.5451 5.56957C13.559 5.91564 13.6823 6.24784 13.8973 6.51992C14.1494 6.83979 14.5216 7.2113 15.0442 7.50804C15.5337 7.78475 15.993 7.90422 16.3183 7.96048V7.95894Z" fill="var(--fill-0, white)"/>
</g>
</svg>
