<svg preserveAspectRatio="none" width="100%" height="100%" overflow="visible" style="display: block;" viewBox="0 0 32 32" fill="none" xmlns="http://www.w3.org/2000/svg">
<g id="Group">
<path id="Vector" d="M16.0364 0H15.9636C7.14713 0 0 7.14713 0 15.9636V16.0364C0 24.8529 7.14713 32 15.9636 32H16.0364C24.8529 32 32 24.8529 32 16.0364V15.9636C32 7.14713 24.8529 0 16.0364 0Z" fill="var(--fill-0, #35383B)"/>
<path id="Vector_2" d="M23.7357 11.5766V14.598C23.2077 14.5464 22.5216 14.4265 21.7626 14.1484C20.7715 13.7852 20.0338 13.2885 19.5506 12.904V19.0107L19.5383 18.9916C19.5461 19.1127 19.5506 19.236 19.5506 19.3605C19.5506 22.3931 17.083 24.8618 14.0493 24.8618C11.0156 24.8618 8.54799 22.3931 8.54799 19.3605C8.54799 16.3279 11.0156 13.858 14.0493 13.858C14.3464 13.858 14.6379 13.8816 14.9227 13.9276V16.9052C14.6491 16.8077 14.3554 16.755 14.0493 16.755C12.6132 16.755 11.4438 17.9232 11.4438 19.3605C11.4438 20.7978 12.6132 21.966 14.0493 21.966C15.4854 21.966 16.6548 20.7966 16.6548 19.3605C16.6548 19.3067 16.6537 19.2529 16.6503 19.199V7.33203H19.6695C19.6807 7.58765 19.6908 7.84551 19.702 8.10112C19.7221 8.6045 19.9015 9.0877 20.2143 9.48345C20.5809 9.94872 21.1224 10.4891 21.8825 10.9207C22.5944 11.3232 23.2626 11.497 23.7357 11.5788V11.5766Z" fill="var(--fill-0, white)"/>
</g>
</svg>
