<svg preserveAspectRatio="none" width="100%" height="100%" overflow="visible" style="display: block;" viewBox="0 0 48 48" fill="none" xmlns="http://www.w3.org/2000/svg">
<g id="youtube 1" clip-path="url(#clip0_52611_9978)">
<path id="Vector" d="M47.011 12.4776C46.4577 10.4213 44.8365 8.80048 42.7806 8.24677C39.0244 7.21882 23.9995 7.21882 23.9995 7.21882C23.9995 7.21882 8.97506 7.21882 5.21885 8.20759C3.2025 8.76093 1.54174 10.4217 0.9884 12.4776C2.9247e-07 16.2334 2.9247e-07 24.0227 2.9247e-07 24.0227C2.9247e-07 24.0227 2.9247e-07 31.8512 0.9884 35.5678C1.54211 37.6237 3.16295 39.2449 5.21922 39.7986C9.01461 40.8266 23.9999 40.8266 23.9999 40.8266C23.9999 40.8266 39.0244 40.8266 42.7806 39.8378C44.8369 39.2845 46.4577 37.6633 47.0114 35.6074C47.9998 31.8512 47.9998 24.0623 47.9998 24.0623C47.9998 24.0623 48.0394 16.2334 47.011 12.4776Z" fill="var(--fill-0, #FF0000)"/>
<path id="Vector_2" d="M19.2157 31.2187L31.7097 24.0227L19.2157 16.8267V31.2187Z" fill="var(--fill-0, white)"/>
</g>
<defs>
<clipPath id="clip0_52611_9978">
<rect width="48" height="48" fill="white"/>
</clipPath>
</defs>
</svg>
