<svg preserveAspectRatio="none" width="100%" height="100%" overflow="visible" style="display: block;" viewBox="0 0 32 32" fill="none" xmlns="http://www.w3.org/2000/svg">
<g id="Group">
<path id="Vector" d="M16.0364 0H15.9636C7.14713 0 0 7.14713 0 15.9636V16.0364C0 24.8529 7.14713 32 15.9636 32H16.0364C24.8529 32 32 24.8529 32 16.0364V15.9636C32 7.14713 24.8529 0 16.0364 0Z" fill="var(--fill-0, #35383B)"/>
<g id="Group_2">
<path id="Vector_2" d="M20.9514 6.5102H11.0497C8.31416 6.5102 6.08874 8.73561 6.08874 11.4711V20.5297C6.08874 23.2653 8.31416 25.4907 11.0497 25.4907H20.9514C23.6869 25.4907 25.9123 23.2653 25.9123 20.5297V11.4711C25.9123 8.73561 23.6869 6.5102 20.9514 6.5102ZM7.83881 11.4711C7.83881 9.70089 9.27944 8.26026 11.0497 8.26026H20.9514C22.7216 8.26026 24.1623 9.70089 24.1623 11.4711V20.5297C24.1623 22.3 22.7216 23.7406 20.9514 23.7406H11.0497C9.27944 23.7406 7.83881 22.3 7.83881 20.5297V11.4711Z" fill="var(--fill-0, white)"/>
<path id="Vector_3" d="M16.0002 20.614C18.544 20.614 20.6147 18.5444 20.6147 15.9994C20.6147 13.4545 18.5452 11.3849 16.0002 11.3849C13.4553 11.3849 11.3857 13.4545 11.3857 15.9994C11.3857 18.5444 13.4553 20.614 16.0002 20.614ZM16.0002 13.1361C17.5799 13.1361 18.8647 14.4209 18.8647 16.0006C18.8647 17.5802 17.5799 18.865 16.0002 18.865C14.4206 18.865 13.1358 17.5802 13.1358 16.0006C13.1358 14.4209 14.4206 13.1361 16.0002 13.1361Z" fill="var(--fill-0, white)"/>
<path id="Vector_4" d="M21.0416 12.1305C21.7264 12.1305 22.2846 11.5733 22.2846 10.8871C22.2846 10.201 21.7276 9.64383 21.0416 9.64383C20.3557 9.64383 19.7987 10.201 19.7987 10.8871C19.7987 11.5733 20.3557 12.1305 21.0416 12.1305Z" fill="var(--fill-0, white)"/>
</g>
</g>
</svg>
