<svg preserveAspectRatio="none" width="100%" height="100%" overflow="visible" style="display: block;" viewBox="0 0 48 48" fill="none" xmlns="http://www.w3.org/2000/svg">
<g id="LINE_LOGO" clip-path="url(#clip0_52604_11639)">
<path id="Vector" d="M24 48C37.2548 48 48 37.2548 48 24C48 10.7452 37.2548 0 24 0C10.7452 0 0 10.7452 0 24C0 37.2548 10.7452 48 24 48Z" fill="var(--fill-0, #4CC764)"/>
<g id="Group">
<path id="Vector_2" d="M40.005 22.602C40.005 15.432 32.817 9.6 23.9835 9.6C15.15 9.6 7.962 15.4335 7.962 22.602C7.962 29.0295 13.662 34.4115 21.3615 35.43C21.8835 35.5425 22.593 35.7735 22.773 36.2205C22.935 36.6255 22.878 37.26 22.8255 37.6695C22.8255 37.6695 22.638 38.8005 22.5975 39.0405C22.527 39.4455 22.275 40.6245 23.985 39.9045C25.695 39.1845 33.2115 34.4715 36.573 30.603C38.895 28.056 40.008 25.473 40.008 22.6035L40.005 22.602Z" fill="var(--fill-0, white)"/>
<g id="Group_2">
<path id="Vector_3" d="M34.6755 26.742C34.845 26.742 34.9815 26.6055 34.9815 26.436V25.299C34.9815 25.131 34.8435 24.993 34.6755 24.993H31.617V23.8125H34.6755C34.845 23.8125 34.9815 23.676 34.9815 23.5065V22.371C34.9815 22.203 34.8435 22.065 34.6755 22.065H31.617V20.8845H34.6755C34.845 20.8845 34.9815 20.748 34.9815 20.5785V19.443C34.9815 19.275 34.8435 19.137 34.6755 19.137H30.174C30.0045 19.137 29.868 19.2735 29.868 19.443V19.449V26.43V26.436C29.868 26.6055 30.0045 26.742 30.174 26.742H34.6755Z" fill="var(--fill-0, #4CC764)"/>
<path id="Vector_4" d="M18.0255 26.742C18.195 26.742 18.3315 26.6055 18.3315 26.436V25.299C18.3315 25.131 18.1935 24.993 18.0255 24.993H14.967V19.443C14.967 19.275 14.829 19.137 14.661 19.137H13.524C13.3545 19.137 13.218 19.2735 13.218 19.443V26.43V26.436C13.218 26.6055 13.3545 26.742 13.524 26.742H18.0255Z" fill="var(--fill-0, #4CC764)"/>
<path id="Vector_5" d="M20.7345 19.137H19.599C19.43 19.137 19.293 19.274 19.293 19.443V26.4345C19.293 26.6035 19.43 26.7405 19.599 26.7405H20.7345C20.9035 26.7405 21.0405 26.6035 21.0405 26.4345V19.443C21.0405 19.274 20.9035 19.137 20.7345 19.137Z" fill="var(--fill-0, #4CC764)"/>
<path id="Vector_6" d="M28.47 19.137H27.333C27.1635 19.137 27.027 19.2735 27.027 19.443V23.5965L23.8275 19.2765C23.82 19.266 23.811 19.2555 23.8035 19.245C23.8035 19.245 23.8035 19.245 23.802 19.2435C23.796 19.2375 23.79 19.23 23.784 19.224C23.7825 19.2225 23.7795 19.221 23.778 19.2195C23.772 19.215 23.7675 19.2105 23.7615 19.206C23.7585 19.2045 23.7555 19.2015 23.7525 19.2C23.748 19.1955 23.742 19.1925 23.736 19.1895C23.733 19.188 23.73 19.185 23.727 19.1835C23.721 19.1805 23.7165 19.1775 23.7105 19.1745C23.7075 19.173 23.7045 19.1715 23.7015 19.17C23.6955 19.167 23.6895 19.164 23.6835 19.1625C23.6805 19.1625 23.6775 19.1595 23.673 19.1595C23.667 19.158 23.661 19.155 23.655 19.1535C23.652 19.1535 23.6475 19.152 23.6445 19.1505C23.6385 19.1505 23.6325 19.1475 23.6265 19.146C23.622 19.146 23.6175 19.146 23.613 19.1445C23.607 19.1445 23.6025 19.143 23.5965 19.143C23.5905 19.143 23.586 19.143 23.58 19.143C23.577 19.143 23.5725 19.143 23.5695 19.143H22.44C22.2705 19.143 22.134 19.2795 22.134 19.449V26.442C22.134 26.6115 22.2705 26.748 22.44 26.748H23.577C23.7465 26.748 23.883 26.6115 23.883 26.442V22.29L27.0855 26.616C27.108 26.6475 27.135 26.673 27.165 26.6925C27.165 26.6925 27.168 26.694 27.168 26.6955C27.174 26.7 27.18 26.703 27.1875 26.7075C27.1905 26.709 27.1935 26.7105 27.1965 26.712C27.201 26.715 27.207 26.7165 27.2115 26.7195C27.216 26.7225 27.222 26.724 27.2265 26.7255C27.2295 26.7255 27.2325 26.7285 27.2355 26.7285C27.243 26.7315 27.249 26.733 27.2565 26.7345C27.2565 26.7345 27.2595 26.7345 27.261 26.7345C27.2865 26.7405 27.3135 26.745 27.3405 26.745H28.47C28.6395 26.745 28.776 26.6085 28.776 26.439V19.446C28.776 19.2765 28.6395 19.14 28.47 19.14V19.137Z" fill="var(--fill-0, #4CC764)"/>
</g>
</g>
</g>
<defs>
<clipPath id="clip0_52604_11639">
<rect width="48" height="48" fill="white"/>
</clipPath>
</defs>
</svg>
