<svg preserveAspectRatio="none" width="100%" height="100%" overflow="visible" style="display: block;" viewBox="0 0 20 20" fill="none" xmlns="http://www.w3.org/2000/svg">
<g id="menu 1" clip-path="url(#clip0_52613_10035)">
<path id="Vector" d="M19.1667 10.816H0.833333C0.373331 10.816 -2.98023e-07 10.4427 -2.98023e-07 9.98271C-2.98023e-07 9.5227 0.373331 9.14937 0.833333 9.14937H19.1667C19.6267 9.14937 20 9.5227 20 9.98271C20 10.4427 19.6267 10.816 19.1667 10.816Z" fill="var(--fill-0, black)"/>
<path id="Vector_2" d="M19.1667 4.42708H0.833333C0.373331 4.42708 -2.98023e-07 4.05375 -2.98023e-07 3.59375C-2.98023e-07 3.13375 0.373331 2.76042 0.833333 2.76042H19.1667C19.6267 2.76042 20 3.13375 20 3.59375C20 4.05375 19.6267 4.42708 19.1667 4.42708Z" fill="var(--fill-0, black)"/>
<path id="Vector_3" d="M19.1667 17.2048H0.833333C0.373331 17.2048 -2.98023e-07 16.8315 -2.98023e-07 16.3715C-2.98023e-07 15.9115 0.373331 15.5381 0.833333 15.5381H19.1667C19.6267 15.5381 20 15.9115 20 16.3715C20 16.8315 19.6267 17.2048 19.1667 17.2048Z" fill="var(--fill-0, black)"/>
</g>
<defs>
<clipPath id="clip0_52613_10035">
<rect width="20" height="20" fill="white"/>
</clipPath>
</defs>
</svg>
