<svg width="32" height="32" viewBox="0 0 32 32" fill="none" xmlns="http://www.w3.org/2000/svg">
<path d="M29.1454 4.208C26.8586 1.6 21.949 0 16 0C10.051 0 5.14143 1.6 2.85457 4.208C-0.951524 8.624 -0.951524 23.408 2.85457 27.792C5.14143 30.4 10.051 32 16 32C21.949 32 26.8586 30.4 29.1454 27.792C32.9515 23.376 32.9515 8.624 29.1454 4.208ZM16 24.8C15.6837 24.8 15.3745 24.7062 15.1115 24.5304C14.8485 24.3545 14.6436 24.1047 14.5225 23.8123C14.4015 23.5199 14.3698 23.1982 14.4315 22.8879C14.4932 22.5775 14.6455 22.2924 14.8692 22.0686C15.0928 21.8449 15.3778 21.6925 15.688 21.6307C15.9982 21.569 16.3198 21.6007 16.612 21.7218C16.9042 21.8429 17.154 22.048 17.3297 22.3111C17.5054 22.5742 17.5992 22.8836 17.5992 23.2C17.5992 23.6243 17.4307 24.0313 17.1308 24.3314C16.8309 24.6314 16.4241 24.8 16 24.8ZM17.5992 16.992V18.4C17.5992 18.8243 17.4307 19.2313 17.1308 19.5314C16.8309 19.8314 16.4241 20 16 20C15.5759 20 15.1691 19.8314 14.8692 19.5314C14.5693 19.2313 14.4008 18.8243 14.4008 18.4V16.912C14.3922 16.2597 14.5947 15.6222 14.9781 15.0945C15.3614 14.5668 15.905 14.1772 16.5277 13.984C16.8505 13.8863 17.1399 13.701 17.3637 13.4487C17.5874 13.1963 17.7369 12.8868 17.7954 12.5545C17.8539 12.2223 17.8191 11.8803 17.695 11.5666C17.5709 11.2529 17.3622 10.9798 17.0922 10.7777C16.8222 10.5756 16.5015 10.4523 16.1657 10.4217C15.8299 10.391 15.4922 10.4541 15.1901 10.604C14.888 10.7538 14.6333 10.9846 14.4545 11.2706C14.2756 11.5566 14.1795 11.8866 14.1769 12.224C14.1769 12.6483 14.0084 13.0553 13.7085 13.3554C13.4086 13.6554 13.0018 13.824 12.5777 13.824C12.1536 13.824 11.7468 13.6554 11.4469 13.3554C11.147 13.0553 10.9785 12.6483 10.9785 12.224C11.0379 11.0481 11.5069 9.93018 12.3041 9.06412C13.1012 8.19806 14.1763 7.63856 15.3427 7.48271C16.5092 7.32685 17.6933 7.58448 18.6897 8.21088C19.6861 8.83729 20.4319 9.79294 20.7976 10.912C21.132 12.1423 20.9879 13.4536 20.3944 14.5818C19.8009 15.71 18.8021 16.5712 17.5992 16.992Z" fill="#915E36"/>
</svg>
