<svg width="40" height="40" viewBox="0 0 40 40" fill="none" xmlns="http://www.w3.org/2000/svg">
<path d="M40.0039 20.0007C40.0039 30.102 32.5155 38.4529 22.7875 39.808C21.8779 39.9341 20.9473 40 20.0027 40C18.9123 40 17.8415 39.9131 16.7988 39.7449C7.27395 38.2118 0 29.9548 0 20.0007C0 8.95491 8.95579 0 20.0013 0C31.0467 0 40.0039 8.95491 40.0039 20.0007Z" fill="#1877F2"/>
<path d="M22.7881 16.0573V20.4142H28.1784L27.3249 26.2833H22.7881V39.8053C21.8785 39.9314 20.9479 39.9973 20.0033 39.9973C18.9129 39.9973 17.8421 39.9104 16.7994 39.7422V26.2833H11.8281V20.4142H16.7994V15.0833C16.7994 11.776 19.4805 9.09375 22.7895 9.09375V9.09655C22.7993 9.09655 22.8077 9.09375 22.8175 9.09375H28.1798V14.1696H24.676C23.6346 14.1696 22.7895 15.0146 22.7895 16.0559L22.7881 16.0573Z" fill="white"/>
</svg>
