<svg preserveAspectRatio="none" width="100%" height="100%" overflow="visible" style="display: block;" viewBox="0 0 64 64" fill="none" xmlns="http://www.w3.org/2000/svg">
<g id="alert 1">
<path id="Vector" d="M60.9072 43.5264L41.3168 9.65766C39.3968 6.25931 35.8768 4.21126 31.9729 4.21126C28.0624 4.21126 24.5424 6.25931 22.6224 9.65766L3.03209 43.5904C1.1121 46.9824 1.1121 51.0784 3.09612 54.4704C5.01611 57.8048 8.47208 59.7887 12.3761 59.7887H51.4992C55.4032 59.7887 58.9232 57.7408 60.9072 54.3423C62.8976 50.9504 62.8976 46.9184 60.9072 43.5264ZM31.9665 51.1744C30.0401 51.1744 28.4656 49.6 28.4656 47.6736C28.4656 45.7472 30.0401 44.1792 31.9665 44.1792C33.8929 44.1792 35.4672 45.7472 35.3904 47.744C35.4672 49.5296 33.8224 51.1744 31.9665 51.1744ZM35.2497 28.6144C35.1088 31.328 34.968 33.9649 34.7504 36.6785C34.68 37.536 34.68 38.3232 34.68 39.1808C34.6097 40.608 33.464 41.6768 32.0368 41.6768C30.6097 41.6768 29.5408 40.6785 29.3936 39.2512C29.112 35.1808 28.8945 31.04 28.6833 26.8288C28.6129 25.6897 28.5424 24.6144 28.4656 23.4752C28.4656 21.6897 29.4704 20.1152 31.1792 19.6929C32.824 19.264 34.5392 20.1152 35.2497 21.6897C35.4672 22.2593 35.5377 22.8288 35.5377 23.4049C35.4672 25.1136 35.32 26.8993 35.2497 28.6144Z" fill="var(--fill-0, #FFC130)"/>
</g>
</svg>
