<svg width="40" height="40" viewBox="0 0 40 40" fill="none" xmlns="http://www.w3.org/2000/svg">
<path d="M40.0011 20.0007C40.0011 30.102 32.513 38.4529 22.7853 39.808C21.8757 39.9341 20.9451 40 20.0005 40C18.9102 40 17.8395 39.9131 16.7968 39.745C7.27369 38.2118 0 29.9548 0 20.0007C0 8.95491 8.95547 0 20.002 0C31.0484 0 40.0039 8.95491 40.0039 20.0007H40.0011Z" fill="#1C1C1B"/>
<path d="M8.11215 8.82007L17.3367 21.1523L8.05469 31.1793H10.1443L18.2715 22.401L24.8374 31.1793H31.9472L22.204 18.1534L30.8442 8.82007H28.7546L21.2707 16.9047L15.2233 8.82007H8.11354H8.11215ZM11.1842 10.3588H14.4497L28.8723 29.6406H25.6069L11.1842 10.3588Z" fill="white"/>
</svg>
