<svg width="40" height="40" viewBox="0 0 40 40" fill="none" xmlns="http://www.w3.org/2000/svg">
<path d="M40.0011 20.0007C40.0011 30.102 32.513 38.4529 22.7853 39.808C21.8757 39.9341 20.9451 40 20.0005 40C18.9102 40 17.8395 39.9131 16.7968 39.745C7.27369 38.2118 0 29.9548 0 20.0007C0 8.95491 8.95547 0 20.002 0C31.0484 0 40.0039 8.95491 40.0039 20.0007H40.0011Z" fill="#00B900"/>
<path d="M32.2773 17.845C32.2773 12.4156 26.8325 7.9978 20.1396 7.9978C13.4468 7.9978 8.00195 12.4156 8.00195 17.845C8.00195 22.713 12.321 26.789 18.1538 27.5592C18.5499 27.6433 19.087 27.8196 19.2227 28.1586C19.3447 28.465 19.3013 28.9451 19.2606 29.2542C19.2606 29.2542 19.1196 30.1112 19.087 30.2929C19.0328 30.5994 18.8429 31.4916 20.1396 30.9465C21.4337 30.4014 27.1309 26.8324 29.6756 23.9035C31.4336 21.9726 32.2773 20.0173 32.2773 17.845Z" fill="white"/>
<path d="M17.6737 15.2205H16.8219C16.6917 15.2205 16.5859 15.3262 16.5859 15.4564V20.742C16.5859 20.8722 16.6917 20.978 16.8219 20.978H17.6737C17.8039 20.978 17.9097 20.8722 17.9097 20.742V15.4564C17.9097 15.3262 17.8039 15.2205 17.6737 15.2205Z" fill="#00B900"/>
<path d="M23.5322 15.22H22.6805C22.5503 15.22 22.4445 15.3258 22.4445 15.456V18.5964L20.0221 15.3258C20.0167 15.3177 20.0113 15.3095 20.0031 15.3014C20.0031 15.3014 20.0031 15.3014 20.0031 15.2987C19.9977 15.2932 19.9923 15.2878 19.9896 15.2851C19.9868 15.2851 19.9868 15.2824 19.9841 15.2797C19.9787 15.277 19.976 15.2716 19.9706 15.2688C19.9679 15.2661 19.9679 15.2661 19.9651 15.2634C19.9624 15.2607 19.957 15.258 19.9543 15.2553C19.9516 15.2526 19.9489 15.2526 19.9462 15.2499C19.9407 15.2471 19.938 15.2444 19.9326 15.2417C19.9299 15.2417 19.9272 15.239 19.9245 15.239C19.919 15.2363 19.9163 15.2336 19.9109 15.2336C19.9082 15.2336 19.9055 15.2309 19.9027 15.2309C19.8973 15.2282 19.8946 15.2282 19.8892 15.2254C19.8865 15.2254 19.8838 15.2254 19.881 15.2227C19.8756 15.2227 19.8729 15.22 19.8675 15.22C19.8648 15.22 19.8621 15.22 19.8566 15.2173C19.8512 15.2173 19.8485 15.2173 19.8431 15.2146C19.8376 15.2146 19.8349 15.2146 19.8322 15.2146C19.8295 15.2146 19.8268 15.2146 19.8241 15.2146H18.9723C18.8421 15.2146 18.7363 15.3204 18.7363 15.4505V20.7362C18.7363 20.8663 18.8421 20.9721 18.9723 20.9721H19.8241C19.9543 20.9721 20.0601 20.8663 20.0601 20.7362V17.6038L22.4852 20.8799C22.5014 20.9043 22.5231 20.9233 22.5448 20.9369C22.5448 20.9369 22.5475 20.9369 22.5475 20.9396C22.553 20.9423 22.5584 20.945 22.5611 20.9477C22.5638 20.9477 22.5665 20.9504 22.5692 20.9504C22.572 20.9531 22.5774 20.9531 22.5801 20.9558C22.5828 20.9586 22.5882 20.9586 22.5909 20.9613C22.5937 20.9613 22.5964 20.964 22.5991 20.964C22.6045 20.9667 22.6099 20.9667 22.6154 20.9694H22.6181C22.6371 20.9748 22.6588 20.9775 22.6777 20.9775H23.5295C23.6597 20.9775 23.7655 20.8718 23.7655 20.7416V15.456C23.7682 15.3258 23.6624 15.22 23.5322 15.22Z" fill="#00B900"/>
<path d="M15.622 19.6545H13.3081V15.4564C13.3081 15.3262 13.2023 15.2205 13.0721 15.2205H12.2204C12.0902 15.2205 11.9844 15.3262 11.9844 15.4564V20.742C11.9844 20.8044 12.0088 20.8641 12.0495 20.9047L12.0522 20.9075L12.0549 20.9102C12.0983 20.9508 12.1553 20.9753 12.2177 20.9753H15.6193C15.7495 20.9753 15.8553 20.8695 15.8553 20.7393V19.8878C15.858 19.763 15.7522 19.6545 15.622 19.6545Z" fill="#00B900"/>
<path d="M28.2345 16.5439C28.3647 16.5439 28.4705 16.4381 28.4705 16.308V15.4564C28.4705 15.3262 28.3647 15.2205 28.2345 15.2205H24.8329C24.7705 15.2205 24.7108 15.2449 24.6701 15.2883L24.6674 15.291C24.6674 15.2937 24.6647 15.2937 24.6647 15.2964C24.624 15.3398 24.5996 15.3967 24.5996 15.4591V20.7447C24.5996 20.8071 24.624 20.8668 24.6647 20.9075L24.6674 20.9102L24.6701 20.9129C24.7135 20.9536 24.7705 20.9807 24.8329 20.9807H28.2345C28.3647 20.9807 28.4705 20.8749 28.4705 20.7447V19.8932C28.4705 19.763 28.3647 19.6572 28.2345 19.6572H25.9207V18.765H28.2345C28.3647 18.765 28.4705 18.6592 28.4705 18.5291V17.6775C28.4705 17.5473 28.3647 17.4416 28.2345 17.4416H25.9207V16.5493H28.2345V16.5439Z" fill="#00B900"/>
</svg>
