<svg preserveAspectRatio="none" width="100%" height="100%" overflow="visible" style="display: block;" viewBox="0 0 24 24" fill="none" xmlns="http://www.w3.org/2000/svg">
<g id="LINE_LOGO" clip-path="url(#clip0_0_6)">
<path id="Vector" d="M12 24C18.6274 24 24 18.6274 24 12C24 5.37258 18.6274 0 12 0C5.37258 0 0 5.37258 0 12C0 18.6274 5.37258 24 12 24Z" fill="var(--fill-0, #4CC764)"/>
<g id="Group">
<path id="Vector_2" d="M20.0025 11.301C20.0025 7.716 16.4085 4.8 11.9918 4.8C7.575 4.8 3.981 7.71675 3.981 11.301C3.981 14.5147 6.831 17.2057 10.6808 17.715C10.9418 17.7712 11.2965 17.8867 11.3865 18.1102C11.4675 18.3127 11.439 18.63 11.4127 18.8347C11.4127 18.8347 11.319 19.4002 11.2987 19.5202C11.2635 19.7227 11.1375 20.3122 11.9925 19.9522C12.8475 19.5922 16.6058 17.2357 18.2865 15.3015C19.4475 14.028 20.004 12.7365 20.004 11.3017L20.0025 11.301Z" fill="var(--fill-0, white)"/>
<g id="Group_2">
<path id="Vector_3" d="M17.3377 13.371C17.4225 13.371 17.4908 13.3028 17.4908 13.218V12.6495C17.4908 12.5655 17.4217 12.4965 17.3377 12.4965H15.8085V11.9063H17.3377C17.4225 11.9063 17.4908 11.838 17.4908 11.7533V11.1855C17.4908 11.1015 17.4217 11.0325 17.3377 11.0325H15.8085V10.4423H17.3377C17.4225 10.4423 17.4908 10.374 17.4908 10.2893V9.7215C17.4908 9.6375 17.4217 9.5685 17.3377 9.5685H15.087C15.0022 9.5685 14.934 9.63675 14.934 9.7215V9.7245V13.215V13.218C14.934 13.3028 15.0022 13.371 15.087 13.371H17.3377Z" fill="var(--fill-0, #4CC764)"/>
<path id="Vector_4" d="M9.01275 13.371C9.0975 13.371 9.16575 13.3028 9.16575 13.218V12.6495C9.16575 12.5655 9.09675 12.4965 9.01275 12.4965H7.4835V9.7215C7.4835 9.6375 7.4145 9.5685 7.3305 9.5685H6.762C6.67725 9.5685 6.609 9.63675 6.609 9.7215V13.215V13.218C6.609 13.3028 6.67725 13.371 6.762 13.371H9.01275Z" fill="var(--fill-0, #4CC764)"/>
<path id="Vector_5" d="M10.3672 9.5685H9.7995C9.715 9.5685 9.6465 9.637 9.6465 9.7215V13.2173C9.6465 13.3017 9.715 13.3703 9.7995 13.3703H10.3672C10.4517 13.3703 10.5203 13.3017 10.5203 13.2173V9.7215C10.5203 9.637 10.4517 9.5685 10.3672 9.5685Z" fill="var(--fill-0, #4CC764)"/>
<path id="Vector_6" d="M14.235 9.5685H13.6665C13.5817 9.5685 13.5135 9.63675 13.5135 9.7215V11.7983L11.9138 9.63825C11.91 9.633 11.9055 9.62775 11.9017 9.6225C11.9017 9.6225 11.9017 9.6225 11.901 9.62175C11.898 9.61875 11.895 9.615 11.892 9.612C11.8912 9.61125 11.8897 9.6105 11.889 9.60975C11.886 9.6075 11.8837 9.60525 11.8807 9.603C11.8792 9.60225 11.8778 9.60075 11.8763 9.6C11.874 9.59775 11.871 9.59625 11.868 9.59475C11.8665 9.594 11.865 9.5925 11.8635 9.59175C11.8605 9.59025 11.8583 9.58875 11.8553 9.58725C11.8538 9.5865 11.8522 9.58575 11.8507 9.585C11.8477 9.5835 11.8447 9.582 11.8417 9.58125C11.8402 9.58125 11.8388 9.57975 11.8365 9.57975C11.8335 9.579 11.8305 9.5775 11.8275 9.57675C11.826 9.57675 11.8237 9.576 11.8222 9.57525C11.8192 9.57525 11.8162 9.57375 11.8132 9.573C11.811 9.573 11.8087 9.573 11.8065 9.57225C11.8035 9.57225 11.8012 9.5715 11.7982 9.5715C11.7952 9.5715 11.793 9.5715 11.79 9.5715C11.7885 9.5715 11.7862 9.5715 11.7847 9.5715H11.22C11.1353 9.5715 11.067 9.63975 11.067 9.7245V13.221C11.067 13.3058 11.1353 13.374 11.22 13.374H11.7885C11.8732 13.374 11.9415 13.3058 11.9415 13.221V11.145L13.5428 13.308C13.554 13.3238 13.5675 13.3365 13.5825 13.3463C13.5825 13.3463 13.584 13.347 13.584 13.3478C13.587 13.35 13.59 13.3515 13.5937 13.3538C13.5952 13.3545 13.5967 13.3553 13.5982 13.356C13.6005 13.3575 13.6035 13.3583 13.6057 13.3598C13.608 13.3613 13.611 13.362 13.6132 13.3628C13.6147 13.3628 13.6163 13.3643 13.6178 13.3643C13.6215 13.3658 13.6245 13.3665 13.6282 13.3673C13.6282 13.3673 13.6297 13.3673 13.6305 13.3673C13.6432 13.3703 13.6567 13.3725 13.6702 13.3725H14.235C14.3197 13.3725 14.388 13.3043 14.388 13.2195V9.723C14.388 9.63825 14.3197 9.57 14.235 9.57V9.5685Z" fill="var(--fill-0, #4CC764)"/>
</g>
</g>
</g>
<defs>
<clipPath id="clip0_0_6">
<rect width="24" height="24" fill="white"/>
</clipPath>
</defs>
</svg>
