<svg preserveAspectRatio="none" width="100%" height="100%" overflow="visible" style="display: block;" viewBox="0 0 95 26.9925" fill="none" xmlns="http://www.w3.org/2000/svg">
<g id="Layer 1">
<path id="Vector" d="M81.2915 3.12079C81.2947 2.96904 81.2799 2.81745 81.2475 2.66928C81.2265 2.5602 81.185 2.45629 81.1251 2.36329C81.0785 2.28809 81.0125 2.2274 80.9342 2.18791C80.8532 2.14995 80.7651 2.13042 80.676 2.13069C80.609 2.13093 80.5427 2.14358 80.4802 2.16801C80.4195 2.19271 80.3636 2.22808 80.315 2.27249C80.2647 2.32351 80.2233 2.38281 80.1926 2.44787C80.1577 2.52678 80.135 2.61069 80.1253 2.69664H79.834C79.8465 2.48271 79.9373 2.28127 80.0886 2.13194C80.1639 2.06174 80.252 2.00722 80.348 1.97148C80.4524 1.93153 80.5632 1.9113 80.6747 1.91178C80.8144 1.90789 80.953 1.93683 81.0798 1.99636C81.1933 2.05118 81.2911 2.1347 81.3637 2.23891C81.4431 2.3511 81.5004 2.4778 81.5326 2.61206C81.5713 2.77833 81.5906 2.94867 81.5901 3.11955C81.5908 3.29036 81.5719 3.46067 81.5338 3.62703C81.5014 3.76681 81.4438 3.89926 81.3637 4.0176C81.2915 4.12379 81.1938 4.20943 81.0798 4.26637C80.9544 4.32822 80.8165 4.35932 80.6772 4.35717C80.5655 4.35823 80.4545 4.33929 80.3492 4.30119C80.2537 4.26404 80.1657 4.20921 80.0898 4.13949C79.9367 3.99085 79.8452 3.78842 79.834 3.57355H80.1253C80.1343 3.66008 80.1583 3.7443 80.1963 3.82232C80.226 3.88835 80.2675 3.94823 80.3186 3.99894C80.3651 4.0459 80.4204 4.08273 80.4814 4.10715C80.5531 4.13532 80.6298 4.14777 80.7066 4.1437C80.7834 4.13963 80.8584 4.11912 80.9268 4.08352C81.0074 4.0403 81.075 3.97586 81.1226 3.89695C81.1811 3.79963 81.2225 3.69273 81.245 3.58101C81.2769 3.42978 81.2925 3.27546 81.2915 3.12079Z" fill="var(--fill-0, #30261D)"/>
<path id="Vector_2" d="M84.0144 4.30119V3.92058C83.9669 4.00297 83.907 4.07726 83.8369 4.14074C83.779 4.19308 83.7128 4.23513 83.6411 4.26512C83.572 4.29748 83.4986 4.31928 83.4233 4.3298C83.3421 4.33983 83.2603 4.3444 83.1785 4.34348C83.0564 4.3465 82.9348 4.32625 82.82 4.28378C82.7263 4.24689 82.6424 4.18808 82.5752 4.11213C82.5102 4.03264 82.463 3.93968 82.4369 3.83973C82.4078 3.72602 82.3934 3.60894 82.3941 3.49145V1.9578H82.6743V3.49643C82.664 3.65912 82.7122 3.82007 82.8102 3.94919C82.8651 4.00596 82.9319 4.04942 83.0057 4.07634C83.0794 4.10326 83.1581 4.11294 83.236 4.10467C83.3547 4.10732 83.4727 4.08487 83.5824 4.03874C83.6759 4.00097 83.7597 3.94181 83.8271 3.86585C83.8915 3.78956 83.9398 3.70066 83.9691 3.60464C84.0001 3.5002 84.0154 3.39158 84.0144 3.28249V1.95656H84.2934V4.30244L84.0144 4.30119Z" fill="var(--fill-0, #30261D)"/>
<path id="Vector_3" d="M86.5194 3.33722C86.5196 3.26646 86.5147 3.19579 86.5047 3.12577C86.4955 3.07659 86.4799 3.0289 86.4582 2.98397C86.444 2.94887 86.4203 2.91864 86.3897 2.8969C86.3605 2.87402 86.3273 2.85712 86.2918 2.84715C86.2518 2.83632 86.2107 2.83007 86.1694 2.82849L86.025 2.82103H85.9528V2.60335H86.025C86.113 2.6056 86.2004 2.58775 86.2808 2.55111C86.3472 2.52196 86.4053 2.47618 86.4496 2.41802C86.4965 2.35822 86.5295 2.28852 86.5463 2.21403C86.5662 2.12844 86.576 2.04077 86.5757 1.95283H86.8571C86.8571 2.00258 86.8486 2.05358 86.8437 2.10706C86.8388 2.15963 86.8294 2.21166 86.8155 2.26254C86.8012 2.31169 86.7819 2.35921 86.758 2.40434C86.7333 2.44997 86.7024 2.49185 86.6662 2.52872C86.6252 2.56788 86.5796 2.60172 86.5304 2.62947C86.4702 2.65977 86.4058 2.68074 86.3395 2.69167C86.4046 2.69757 86.4681 2.71571 86.5267 2.74515C86.5747 2.76933 86.6185 2.80126 86.6564 2.83968C86.6894 2.87471 86.717 2.91454 86.7384 2.95785C86.7555 3.00083 86.7698 3.04486 86.7813 3.08969C86.7912 3.13263 86.7977 3.1763 86.8008 3.2203C86.8008 3.26134 86.8008 3.2999 86.8008 3.33349V3.56982C86.8029 3.68746 86.7813 3.8043 86.7372 3.91312C86.6969 4.00486 86.6376 4.08673 86.5634 4.15318C86.4884 4.21733 86.4014 4.26555 86.3077 4.29497C86.2104 4.32675 86.1088 4.3423 86.0066 4.341C85.9033 4.34231 85.8004 4.32677 85.7019 4.29497C85.607 4.26209 85.5191 4.21147 85.4425 4.14571C85.3642 4.08001 85.3012 3.99763 85.2577 3.90441C85.2111 3.79977 85.1881 3.68588 85.1904 3.57106V3.3111C85.1904 3.24766 85.1904 3.19791 85.1904 3.15189C85.1934 3.1131 85.1983 3.07449 85.2051 3.03621C85.2085 3.00507 85.2172 2.97476 85.2308 2.94665C85.242 2.91903 85.2555 2.8924 85.2712 2.86705C85.292 2.84093 85.3079 2.81481 85.3299 2.78744C85.3519 2.76008 85.3801 2.72649 85.4094 2.69042C85.4388 2.65435 85.4657 2.62699 85.4865 2.60335C85.5073 2.57972 85.5269 2.5536 85.5453 2.53494C85.562 2.51336 85.5763 2.49001 85.5881 2.46529C85.6015 2.44162 85.6099 2.41534 85.6126 2.38817C85.6223 2.35318 85.6241 2.3164 85.6177 2.28061C85.6114 2.24483 85.5971 2.211 85.5759 2.18169C85.5498 2.15743 85.519 2.13893 85.4855 2.12737C85.452 2.11581 85.4165 2.11144 85.3813 2.11453C85.327 2.1129 85.2728 2.12046 85.221 2.13691C85.1745 2.15184 85.1292 2.16677 85.0876 2.18418V2.00631L85.1769 1.97024L85.2822 1.94536L85.3776 1.92422C85.4058 1.92422 85.429 1.92422 85.4486 1.92422C85.5086 1.91931 85.569 1.92669 85.6262 1.94591C85.6834 1.96514 85.7362 1.99583 85.7815 2.03616C85.8199 2.07928 85.8489 2.13016 85.8666 2.18546C85.8843 2.24076 85.8903 2.29924 85.8843 2.35707C85.8828 2.38212 85.8779 2.40683 85.8696 2.43046C85.8635 2.45036 85.8549 2.47026 85.8463 2.49265C85.8378 2.51504 85.8243 2.53121 85.8096 2.55484L85.757 2.62699L85.6823 2.72152C85.6566 2.76008 85.6199 2.80361 85.5844 2.85212C85.5587 2.88789 85.5365 2.92623 85.5184 2.96655C85.5041 2.99669 85.4935 3.02841 85.4865 3.06109C85.4801 3.09259 85.4768 3.12468 85.4767 3.15686C85.4767 3.1892 85.4767 3.22527 85.4767 3.27129V3.49767C85.4748 3.5863 85.4893 3.6745 85.5196 3.75764C85.5423 3.8288 85.5799 3.89413 85.6297 3.94919C85.6768 4.00011 85.7339 4.04037 85.7974 4.06735C85.8641 4.09366 85.9351 4.10715 86.0066 4.10715C86.0768 4.10803 86.1466 4.09753 86.2134 4.07606C86.2735 4.05671 86.3284 4.02351 86.3738 3.97904C86.4212 3.92804 86.4575 3.86743 86.4802 3.80117C86.5089 3.71427 86.5222 3.62288 86.5194 3.53126V3.33722Z" fill="var(--fill-0, #30261D)"/>
<path id="Vector_4" d="M86.0384 1.52121V1.11075H86.3003V1.31598H87.4788V1.52246L86.0384 1.52121Z" fill="var(--fill-0, #30261D)"/>
<path id="Vector_5" d="M88.0491 2.47026C88.047 2.40794 88.0553 2.3457 88.0736 2.28617C88.089 2.23662 88.113 2.19027 88.1445 2.14935C88.1736 2.11175 88.2083 2.07902 88.2473 2.05233C88.2857 2.02733 88.3267 2.00688 88.3697 1.99139C88.4127 1.9752 88.4575 1.96475 88.5031 1.96029C88.5467 1.95283 88.591 1.94949 88.6352 1.95034H88.8935V2.16677H88.6634C88.6342 2.16721 88.6051 2.17054 88.5765 2.17672C88.5462 2.18214 88.5169 2.1922 88.4896 2.20657C88.4597 2.21905 88.4326 2.23768 88.4101 2.2613C88.3864 2.28761 88.368 2.31848 88.3562 2.3521C88.3402 2.39537 88.3327 2.44145 88.3342 2.48768C88.3346 2.54862 88.3462 2.60896 88.3685 2.66555C88.3875 2.71334 88.4172 2.75594 88.4554 2.78993C88.4991 2.82182 88.548 2.8458 88.5998 2.86083C88.6537 2.87828 88.7096 2.88873 88.7662 2.89192H88.902V3.11581H88.765C88.7064 3.11749 88.6486 3.12883 88.5936 3.1494C88.5431 3.1686 88.4973 3.19865 88.4593 3.23751C88.4213 3.27636 88.392 3.3231 88.3734 3.37453C88.3525 3.43744 88.3422 3.50344 88.3428 3.56982C88.3413 3.65602 88.3602 3.74132 88.3978 3.81858C88.4312 3.88671 88.4798 3.94593 88.5398 3.99148C88.6009 4.03951 88.6708 4.07461 88.7454 4.09472C88.8252 4.11624 88.9076 4.1267 88.9901 4.12581C89.0793 4.12525 89.1681 4.11355 89.2545 4.09098C89.3314 4.06671 89.4015 4.02406 89.4588 3.9666C89.5193 3.90526 89.5646 3.83024 89.591 3.74768C89.6261 3.63942 89.6427 3.52582 89.64 3.41185V1.95283H89.9165V3.4927C89.9181 3.62094 89.893 3.74808 89.8431 3.86585C89.7976 3.96935 89.7303 4.06147 89.6461 4.13576C89.5594 4.20933 89.4597 4.26547 89.3524 4.30119C89.2335 4.33838 89.1096 4.35643 88.9852 4.35468C88.9062 4.35403 88.8273 4.34779 88.7491 4.33602C88.6741 4.32289 88.6005 4.30333 88.5288 4.27756C88.4608 4.2497 88.3963 4.2138 88.3367 4.17059C88.2774 4.13149 88.2252 4.08226 88.1825 4.02506C88.1385 3.96668 88.1038 3.90162 88.0797 3.83227C88.0538 3.75546 88.0413 3.67463 88.043 3.59345C88.0441 3.53225 88.049 3.47118 88.0576 3.4106C88.0715 3.35377 88.0916 3.2987 88.1176 3.24642C88.1479 3.19443 88.1868 3.14815 88.2326 3.1096C88.2898 3.06572 88.3545 3.03323 88.4235 3.01382C88.3466 2.99153 88.275 2.95343 88.2131 2.90187C88.1665 2.86531 88.1281 2.81909 88.1005 2.7663C88.0746 2.71997 88.0584 2.66875 88.0527 2.61579C88.049 2.56738 88.0477 2.5188 88.0491 2.47026Z" fill="var(--fill-0, #30261D)"/>
<path id="Vector_6" d="M84.4561 8.51656L84.4586 9.90344L89.9178 9.89598L89.9275 16.8279L81.7382 16.8391L81.7345 14.0678L87.1925 14.0603L87.19 12.6722L81.7333 12.6797L81.7247 5.74529L89.9129 5.73409L89.9165 8.5091L84.4561 8.51656Z" fill="var(--fill-0, #FF9015)"/>
<path id="Vector_7" d="M58.5578 4.38826L58.5737 16.8689L55.8448 16.8727L55.8399 12.7133L53.1121 12.717L53.117 16.8764L50.3881 16.8789L50.3795 9.94822L55.8362 9.94076L55.835 8.55263L50.3783 8.5601L50.3746 5.78509L55.8313 5.77887L55.8301 4.39199L58.5578 4.38826Z" fill="var(--fill-0, #FF9015)"/>
<path id="Vector_8" d="M69.4552 2.991L63.9973 2.99778L63.999 4.3859L69.4569 4.37913L69.4552 2.991Z" fill="var(--fill-0, #FF9015)"/>
<path id="Vector_9" d="M80.3786 5.74653L80.3921 16.8403L77.6643 16.8441L77.6545 9.67333L77.4208 9.91215L75.6108 11.7568L73.6773 9.79771L73.5623 9.67955L73.5684 14.0778L74.9317 14.0753L74.9353 16.8478L70.8407 16.8528L70.826 5.75897L73.5574 5.75524L75.606 7.83245L77.6496 5.75026L80.3786 5.74653Z" fill="var(--fill-0, #FF9015)"/>
<path id="Vector_10" d="M69.459 5.76022L69.4737 16.854L66.7435 16.8577L66.7399 14.0865L64.0097 14.0902L64.0133 16.8615L61.2868 16.8652L61.2831 14.0939L59.9174 14.0952L59.9138 11.3214L61.2795 11.3202L61.2758 8.54641L59.9101 8.54766L59.9064 5.77265L63.9999 5.76768L64.006 11.3164L66.7362 11.3127L66.7288 5.76395L69.459 5.76022Z" fill="var(--fill-0, #FF9015)"/>
<path id="Vector_11" d="M37.8299 5.80126L37.8434 16.8951L33.6814 16.9013L33.6777 14.1288L35.1107 14.1275L35.1034 8.58L29.6454 8.58746L29.6418 5.81246L37.8299 5.80126Z" fill="var(--fill-0, #633510)"/>
<path id="Vector_12" d="M49.0285 5.78758L49.0419 16.8814L46.313 16.8851L46.3032 8.56507L42.2097 8.57129L42.2171 14.1176L43.5803 14.1163L43.584 16.8876L39.4893 16.8938L39.4746 5.80002L49.0285 5.78758Z" fill="var(--fill-0, #633510)"/>
<path id="Vector_13" d="M37.8446 18.2844L37.8483 21.0582L33.6875 21.0632L33.6863 19.6763L33.0046 19.6775L33.0034 18.2906L35.0838 18.2869L35.0862 19.675L36.4838 19.6725L36.4813 18.2857L37.8446 18.2844Z" fill="var(--fill-0, #633510)"/>
<path id="Vector_14" d="M37.8238 1.64187L37.8262 3.02875L36.4642 4.41687L33.6667 4.4206L33.6655 3.03372L32.9838 3.03497L32.9826 1.64809L35.063 1.6456L35.0654 3.03248L35.8964 3.03123L36.4617 2.45658L36.4605 1.64435L37.8238 1.64187Z" fill="var(--fill-0, #633510)"/>
<path id="Vector_15" d="M16.6357 4.47284L14.1943 7.39959L14.1931 7.39711L11.7431 4.47906L16.6357 4.47284Z" fill="var(--fill-0, #30261D)"/>
<path id="Vector_16" d="M9.22588 23.8792L6.75879 26.7189L0 4.49399L4.18157 7.28019L9.22588 23.8792Z" fill="var(--fill-0, #633510)"/>
<path id="Vector_17" d="M24.2071 7.25531L28.3801 4.45792L25.049 4.46165L24.2071 7.25531Z" fill="var(--fill-0, #30261D)"/>
<path id="Vector_18" d="M14.1943 7.39959L9.22955 23.8792H9.22588L4.18157 7.28019L6.66212 4.48528L9.21242 12.875L11.7431 4.47906L14.1931 7.39711L14.1943 7.39959Z" fill="var(--fill-0, #826040)"/>
<path id="Vector_19" d="M19.2007 23.8643V23.8668L19.1995 23.868L16.7336 26.7065L14.209 18.4038V18.4026L15.866 12.9011L19.2007 23.8643Z" fill="var(--fill-0, #633510)"/>
<path id="Vector_20" d="M21.6751 26.7002L16.7336 26.7065L19.1995 23.868L19.2007 23.8668L19.2031 23.868L21.6751 26.7002Z" fill="var(--fill-0, #30261D)"/>
<path id="Vector_21" d="M11.7015 26.7127L6.75879 26.7189L9.22588 23.8792L9.22955 23.8805L11.7015 26.7127Z" fill="var(--fill-0, #30261D)"/>
<path id="Vector_22" d="M6.66211 4.48528L4.18157 7.28019L0 4.49399L6.66211 4.48528Z" fill="var(--fill-0, #30261D)"/>
<path id="Vector_23" d="M28.3801 4.45792L21.6751 26.7002L19.2031 23.868L19.2007 23.8668V23.8643L24.2071 7.25531L28.3801 4.45792Z" fill="var(--fill-0, #633510)"/>
<path id="Vector_24" d="M22.2185 2.79739L19.1872 12.8625L16.6357 4.47284L14.1943 7.3996V7.40084L9.22955 23.8792V23.8805L11.7015 26.7127L15.866 12.9011L19.2007 23.8643L26.389 0L22.2185 2.79739Z" fill="var(--fill-0, #FF9015)"/>
<path id="Vector_25" d="M46.8086 26.8594L48.4937 21.5184H49.7701L48.085 26.8669L46.8086 26.8594Z" fill="var(--fill-0, #633510)"/>
<path id="Vector_26" d="M52.5884 22.562C52.4639 22.5616 52.3401 22.5804 52.2212 22.618C52.0986 22.6568 51.9814 22.7116 51.8725 22.7809C51.7601 22.8512 51.6561 22.9347 51.5629 23.0297C51.4662 23.131 51.3812 23.2433 51.3095 23.3643H49.9683C50.128 23.0782 50.3154 22.8091 50.5276 22.5607C50.731 22.3248 50.9629 22.1158 51.2178 21.9388C51.468 21.7654 51.7412 21.6289 52.0291 21.5333C52.3293 21.4358 52.6428 21.3871 52.9579 21.389C53.3143 21.3729 53.669 21.4477 53.9896 21.6067C54.2318 21.737 54.4234 21.9471 54.5329 22.2025C54.6442 22.4853 54.6862 22.7914 54.6553 23.0943C54.6251 23.4716 54.5499 23.8438 54.4313 24.2026C54.3525 24.4496 54.2577 24.691 54.1474 24.9253C54.039 25.1556 53.9109 25.3758 53.7644 25.5833C53.6198 25.7874 53.4559 25.9765 53.2749 26.148C53.0961 26.3183 52.8981 26.4665 52.685 26.5895C52.4679 26.7155 52.2354 26.8121 51.9936 26.8769C51.7341 26.9466 51.4666 26.9809 51.1982 26.9789C50.9497 26.9833 50.7021 26.9489 50.4639 26.8769C50.2751 26.8183 50.1002 26.7209 49.95 26.5908C49.8151 26.4707 49.7095 26.3204 49.6416 26.1517C49.5704 25.9716 49.5291 25.7808 49.5192 25.587C49.5066 25.3661 49.5189 25.1445 49.5559 24.9265C49.5971 24.6801 49.6568 24.4372 49.7346 24.2001L49.857 23.827H52.1968L51.8504 24.9091H50.8372C50.8267 25.0341 50.8354 25.16 50.8629 25.2823C50.8853 25.3878 50.93 25.4871 50.9938 25.5733C51.055 25.6555 51.1353 25.7208 51.2276 25.7636C51.3324 25.8104 51.446 25.8334 51.5604 25.8308C51.7295 25.8312 51.8966 25.7938 52.0499 25.7213C52.2131 25.6426 52.361 25.5347 52.4868 25.4029C52.6307 25.2501 52.7542 25.0786 52.8539 24.8929C52.9743 24.6736 53.0723 24.4423 53.1464 24.2026C53.3096 23.6702 53.3504 23.2635 53.2688 22.9824C53.1872 22.7013 52.9604 22.5612 52.5884 22.562Z" fill="var(--fill-0, #633510)"/>
<path id="Vector_27" d="M52.9176 19.4599C52.9094 19.4887 52.9041 19.5183 52.9017 19.5482C52.8955 19.5823 52.8955 19.6173 52.9017 19.6514C52.9086 19.6843 52.9253 19.7142 52.9494 19.7372C52.9652 19.7509 52.9835 19.7612 53.0032 19.7676C53.023 19.774 53.0438 19.7764 53.0644 19.7745C53.1075 19.7756 53.1504 19.7679 53.1906 19.7519C53.2307 19.7359 53.2673 19.7119 53.2981 19.6813C53.3753 19.5927 53.4292 19.4857 53.4548 19.3703H54.2478C54.2004 19.4659 54.1837 19.5742 54.2001 19.68C54.2209 19.7422 54.2759 19.7745 54.364 19.7745C54.4027 19.7766 54.4412 19.7685 54.4759 19.7511C54.5106 19.7336 54.5404 19.7075 54.5623 19.675C54.6173 19.5814 54.6542 19.478 54.6712 19.3703H55.5352C55.499 19.5881 55.4275 19.7983 55.3235 19.9922C55.2407 20.1457 55.1307 20.2823 54.9992 20.3952C54.8837 20.494 54.7502 20.5688 54.6063 20.6154C54.47 20.6583 54.3281 20.6805 54.1854 20.6813C54.1115 20.6815 54.038 20.6702 53.9675 20.6477C53.9046 20.6273 53.8452 20.597 53.7913 20.5582C53.7415 20.5244 53.6976 20.4824 53.6616 20.4338C53.6288 20.3878 53.602 20.3376 53.5821 20.2845C53.5201 20.3421 53.4534 20.3941 53.3826 20.44C53.3085 20.4877 53.2307 20.5293 53.1501 20.5644C53.0711 20.6001 52.9892 20.6288 52.9053 20.6502C52.8253 20.6706 52.7431 20.681 52.6606 20.6813C52.5382 20.6849 52.4162 20.6655 52.3008 20.6241C52.2092 20.5913 52.1257 20.5386 52.056 20.4698C51.9932 20.4064 51.9451 20.3295 51.9153 20.2447C51.8847 20.1602 51.8649 20.072 51.8566 19.9823C51.8493 19.8919 51.8517 19.801 51.8639 19.7111C51.8754 19.6249 51.893 19.5397 51.9165 19.4561C51.9816 19.2445 52.0849 19.0471 52.2212 18.874C52.3454 18.7161 52.4943 18.58 52.6618 18.471C52.8223 18.3655 52.9977 18.2854 53.1819 18.2334C53.3582 18.1846 53.5401 18.1599 53.7228 18.16H56.2388L55.9647 19.0307H53.538C53.4428 19.0272 53.3479 19.0433 53.259 19.078C53.1927 19.1047 53.1317 19.1435 53.0791 19.1924C53.0361 19.2324 53.0001 19.2795 52.9726 19.3317C52.9516 19.3732 52.9332 19.416 52.9176 19.4599Z" fill="var(--fill-0, #633510)"/>
<path id="Vector_28" d="M57.7942 22.552C57.6432 22.5487 57.4924 22.5641 57.3451 22.5981C57.2187 22.6259 57.0956 22.6676 56.978 22.7224C56.8799 22.7692 56.7878 22.8281 56.7039 22.8978C56.6381 22.9511 56.5797 23.013 56.5301 23.0819C56.6124 23.1918 56.6556 23.3269 56.6525 23.465C56.6498 23.646 56.6167 23.8252 56.5546 23.9949L55.6551 26.8669H54.402L55.3027 23.9874C55.3213 23.9278 55.3348 23.8666 55.343 23.8046C55.3504 23.7428 55.3479 23.6802 55.3357 23.6192C55.3208 23.555 55.2956 23.4936 55.261 23.4376C55.2178 23.3715 55.1615 23.3152 55.0958 23.2722C55.1843 23.1156 55.2824 22.9648 55.3895 22.8207C55.5049 22.6668 55.6317 22.5221 55.7689 22.3878C55.9136 22.2464 56.07 22.1178 56.2364 22.0035C56.4103 21.8821 56.5956 21.7783 56.7895 21.6938C56.996 21.603 57.2108 21.533 57.4308 21.4848C57.6721 21.4326 57.9183 21.4071 58.165 21.4089C58.4291 21.4045 58.6927 21.4342 58.9494 21.4973C59.1441 21.5446 59.3289 21.6268 59.4952 21.7398C59.6334 21.8356 59.7471 21.9635 59.8269 22.113C59.9036 22.2581 59.9542 22.4161 59.9762 22.5794C60 22.7556 60 22.9343 59.9762 23.1105C59.9504 23.3034 59.9095 23.4939 59.8538 23.6802L58.8393 26.8669H57.5629L58.5933 23.5832C58.631 23.4645 58.6512 23.3409 58.6533 23.2162C58.6589 23.0964 58.6281 22.9776 58.5651 22.8762C58.502 22.7747 58.4098 22.6954 58.3009 22.6491C58.1402 22.5821 57.9678 22.549 57.7942 22.552Z" fill="var(--fill-0, #633510)"/>
<path id="Vector_29" d="M63.8567 21.5284C63.771 21.7896 63.6878 22.0184 63.6119 22.2174C63.5361 22.4165 63.4529 22.5906 63.3672 22.7535C63.4855 22.7302 63.5994 22.6882 63.705 22.6292C63.8099 22.5678 63.9039 22.4887 63.9827 22.3953C64.0741 22.2859 64.1514 22.1651 64.2128 22.0358C64.2911 21.8723 64.3573 21.7031 64.4111 21.5296H65.663C65.5952 21.7311 65.5275 21.9152 65.4598 22.0819C65.3948 22.2404 65.3153 22.3924 65.2224 22.5359C65.1316 22.6725 65.0252 22.7978 64.9055 22.909C64.7722 23.0307 64.6246 23.1352 64.4661 23.22C64.532 23.2682 64.5871 23.3301 64.6277 23.4016C64.6662 23.4725 64.6942 23.5488 64.7109 23.628C64.7273 23.7098 64.7347 23.7932 64.7329 23.8767C64.7308 23.9642 64.7231 24.0515 64.7097 24.1379C64.695 24.2225 64.6778 24.3046 64.657 24.3867C64.6362 24.4688 64.6142 24.5372 64.5934 24.5981L64.4331 25.133C64.3697 25.3382 64.2822 25.5349 64.1724 25.7188C64.0682 25.8894 63.945 26.0471 63.8053 26.189C63.6732 26.3248 63.5266 26.4454 63.3684 26.5485C63.2132 26.6467 63.0493 26.73 62.8789 26.7973C62.7142 26.8628 62.5437 26.9124 62.3698 26.9453C62.201 26.9761 62.0298 26.992 61.8583 26.9925C61.6192 26.9928 61.3819 26.9507 61.1571 26.8682C60.9559 26.7974 60.7756 26.6759 60.6333 26.5149C60.4933 26.3498 60.4029 26.1473 60.3727 25.9315C60.3387 25.6588 60.3685 25.3819 60.4596 25.123C60.5281 24.9091 60.5929 24.7159 60.6541 24.5434C60.7121 24.3777 60.7859 24.2182 60.8744 24.067C60.9633 23.9166 61.0711 23.7787 61.195 23.6566C61.3447 23.5123 61.5087 23.3843 61.6845 23.2747C61.7286 23.2449 61.7739 23.2162 61.8216 23.1864L61.9562 23.1006L62.0994 23.0023C62.0785 23.0094 62.0573 23.0152 62.0357 23.0197L61.9574 23.0322L61.884 23.0384H61.8351C61.7617 23.0376 61.6885 23.0314 61.616 23.0197C61.5313 23.0058 61.4489 22.9799 61.3713 22.9426C61.2885 22.9021 61.2131 22.8474 61.1485 22.7809C61.0759 22.7035 61.0222 22.6097 60.9919 22.5073C60.9538 22.3732 60.9393 22.2334 60.9491 22.0943C60.9652 21.8962 61.0064 21.7009 61.0714 21.5134H62.1728C62.1492 21.5814 62.1312 21.6513 62.119 21.7224C62.1073 21.7809 62.1044 21.8409 62.1104 21.9003C62.1145 21.9452 62.1306 21.9882 62.1569 22.0246C62.1707 22.041 62.1881 22.0538 62.2076 22.062C62.2272 22.0702 62.2484 22.0736 62.2695 22.0719C62.319 22.0716 62.3674 22.0569 62.409 22.0296C62.4565 21.9956 62.4979 21.9535 62.5314 21.9052C62.573 21.8497 62.609 21.7901 62.6391 21.7274C62.6736 21.6564 62.7026 21.5828 62.7259 21.5072L63.8567 21.5284ZM63.3195 24.6019C63.3638 24.4712 63.3886 24.3345 63.3929 24.1964C63.3978 24.0797 63.3773 23.9633 63.3329 23.8556C63.2934 23.7593 63.2281 23.6761 63.1445 23.6155C63.0536 23.5507 62.9469 23.5128 62.8361 23.5061C62.7793 23.5737 62.718 23.6373 62.6525 23.6964C62.5864 23.7561 62.5179 23.8207 62.4482 23.8854C62.3618 23.9597 62.2835 24.0431 62.2144 24.1342C62.1472 24.2221 62.0863 24.3148 62.0321 24.4116C61.9801 24.5052 61.9339 24.602 61.8938 24.7014C61.8534 24.7984 61.8204 24.8929 61.791 24.9837C61.7545 25.099 61.7379 25.2197 61.742 25.3407C61.7451 25.4329 61.7712 25.5228 61.8179 25.6019C61.8617 25.6712 61.9236 25.7267 61.9966 25.7624C62.0768 25.8012 62.1648 25.8204 62.2536 25.8184C62.3493 25.8185 62.4445 25.8047 62.5363 25.7773C62.6294 25.7483 62.717 25.7038 62.7957 25.6455C62.8823 25.58 62.9568 25.4996 63.016 25.4079C63.0878 25.2981 63.1435 25.1783 63.1812 25.0521L63.3195 24.6019Z" fill="var(--fill-0, #633510)"/>
<path id="Vector_30" d="M66.2761 19.8591C66.1325 19.8584 65.9897 19.8802 65.8526 19.9238C65.7253 19.9659 65.6055 20.0284 65.4977 20.1091C65.3922 20.1899 65.3004 20.2879 65.2261 20.3989C65.1484 20.5135 65.0882 20.6393 65.0474 20.7721H63.8579C63.9447 20.4906 64.0821 20.2279 64.263 19.9972C64.4391 19.773 64.6499 19.5794 64.8871 19.4238C65.131 19.2652 65.3965 19.1441 65.6752 19.0643C65.9667 18.9831 66.2675 18.9413 66.5698 18.9399L66.2761 19.8591Z" fill="var(--fill-0, #633510)"/>
<path id="Vector_31" d="M64.8333 26.8669L66.5184 21.5259H67.796L66.1096 26.8669H64.8333Z" fill="var(--fill-0, #633510)"/>
<path id="Vector_32" d="M72.1794 21.5333L72.0571 24.531L73.6271 21.5346H74.988L71.9567 26.8756H70.8798L70.9789 23.827L69.1837 26.8744H68.1043L68.4409 21.5259H69.8029L69.459 24.5484L71.2518 21.5271L72.1794 21.5333Z" fill="var(--fill-0, #633510)"/>
<path id="Vector_33" d="M75.5264 24.8954C75.4448 25.2221 75.4522 25.4651 75.5484 25.6243C75.6447 25.7835 75.8283 25.8631 76.0991 25.8631C76.1813 25.8629 76.2633 25.8546 76.3439 25.8383C76.4324 25.8208 76.5183 25.7919 76.5996 25.7524C76.6843 25.7122 76.761 25.6565 76.826 25.5882C76.8957 25.5151 76.9476 25.4266 76.9778 25.3295C77.0029 25.2648 77.0059 25.1934 76.9863 25.1268C76.961 25.0611 76.9187 25.0035 76.864 24.9601C76.7884 24.8981 76.7063 24.8447 76.6192 24.8009C76.5164 24.7474 76.3953 24.6889 76.2521 24.623C76.0392 24.5248 75.8421 24.4277 75.661 24.3295C75.4949 24.2438 75.3433 24.1317 75.2119 23.9974C75.0955 23.8771 75.0142 23.7264 74.9769 23.562C74.9403 23.3628 74.958 23.1572 75.0283 22.9675C75.085 22.7884 75.1649 22.6177 75.2657 22.46C75.3584 22.3148 75.4691 22.1823 75.5949 22.0657C75.7164 21.9533 75.8503 21.8556 75.9939 21.7746C76.135 21.6957 76.2828 21.6299 76.4357 21.5781C76.5851 21.5274 76.7387 21.4899 76.8946 21.4662C77.0445 21.4435 77.1958 21.4323 77.3474 21.4326C77.6034 21.4285 77.8588 21.4608 78.1061 21.5284C78.3093 21.5806 78.4931 21.6922 78.6347 21.8493C78.7739 22.0209 78.8557 22.233 78.8685 22.455C78.8855 22.7747 78.844 23.0948 78.7461 23.3991H77.5223C77.562 23.2708 77.581 23.1368 77.5786 23.0023C77.5776 22.908 77.5519 22.8157 77.504 22.7349C77.4603 22.6678 77.3975 22.6157 77.3241 22.5856C77.2438 22.5538 77.1582 22.5382 77.072 22.5396C76.9988 22.5399 76.9258 22.5478 76.8542 22.5632C76.779 22.5784 76.7059 22.6026 76.6364 22.6354C76.5678 22.6664 76.5046 22.7084 76.4491 22.7598C76.393 22.8115 76.3509 22.877 76.3267 22.9501C76.3087 23.0028 76.3087 23.0602 76.3267 23.113C76.3551 23.171 76.3972 23.221 76.4491 23.2585C76.5225 23.3182 76.6026 23.3687 76.6877 23.409C76.7881 23.46 76.9129 23.516 77.061 23.5782C77.3181 23.6834 77.5641 23.8146 77.7953 23.97C77.9549 24.0757 78.0925 24.2122 78.2003 24.3718C78.2836 24.5027 78.329 24.6549 78.3313 24.8108C78.3301 24.9801 78.3024 25.148 78.2493 25.3084C78.1644 25.5931 78.0274 25.859 77.8454 26.092C77.6801 26.2996 77.479 26.4749 77.2519 26.6094C77.0234 26.7424 76.7755 26.8377 76.5177 26.8918C76.2465 26.9498 75.97 26.9781 75.6928 26.9764C75.4354 26.9803 75.1791 26.9412 74.9341 26.8607C74.7251 26.792 74.5393 26.6648 74.3981 26.4938C74.2573 26.3069 74.1724 26.0828 74.1534 25.8482C74.1294 25.5246 74.1655 25.1993 74.2598 24.8892L75.5264 24.8954Z" fill="var(--fill-0, #633510)"/>
<path id="Vector_34" d="M82.4076 24.4327C82.256 24.517 82.0955 24.5833 81.9291 24.6305C81.7773 24.6728 81.6403 24.7051 81.5179 24.7312L81.0529 24.8183C80.9088 24.8439 80.7665 24.8792 80.627 24.924C80.5095 24.9607 80.3979 25.0143 80.2954 25.0832C80.2074 25.1414 80.1427 25.2297 80.113 25.332C80.0795 25.4213 80.0727 25.5187 80.0935 25.6119C80.1131 25.6853 80.1561 25.7501 80.2158 25.796C80.2785 25.8455 80.3512 25.8804 80.4288 25.898C80.5149 25.9195 80.6032 25.9303 80.6919 25.9303C80.7993 25.9283 80.9064 25.9187 81.0125 25.9017C81.1544 25.8799 81.2949 25.85 81.4335 25.8121L81.1092 26.8308C80.944 26.8781 80.7765 26.9167 80.6074 26.9465C80.4584 26.9744 80.3074 26.9894 80.1559 26.9913C79.9271 26.9935 79.699 26.9642 79.4779 26.9042C79.2916 26.857 79.1203 26.7624 78.9799 26.6293C78.8463 26.4957 78.7602 26.3206 78.7351 26.1318C78.7067 25.882 78.7364 25.6289 78.822 25.393C78.8989 25.1333 79.0295 24.8932 79.205 24.6889C79.3787 24.4956 79.5862 24.3366 79.8169 24.22C80.078 24.0863 80.3536 23.984 80.638 23.9153C80.9448 23.8373 81.2838 23.7664 81.655 23.7026C81.7859 23.679 81.9169 23.6516 82.0454 23.6192C82.1655 23.591 82.283 23.5523 82.3966 23.5036C82.4946 23.4637 82.5865 23.4096 82.6695 23.3431C82.741 23.2883 82.7947 23.2129 82.8237 23.1267C82.8615 23.0297 82.868 22.9229 82.842 22.8219C82.8166 22.7487 82.7644 22.6881 82.6964 22.6528C82.6179 22.6119 82.5322 22.5874 82.4443 22.5806C82.3464 22.5719 82.2473 22.567 82.1445 22.567C82.0139 22.5663 81.8835 22.5788 81.7553 22.6043C81.6342 22.6302 81.5184 22.6769 81.4127 22.7423C81.3002 22.8155 81.2016 22.9086 81.1214 23.0172C81.0228 23.1546 80.9444 23.3058 80.8889 23.4663H79.6052C79.6894 23.2221 79.7989 22.9878 79.9319 22.7672C80.0489 22.5729 80.1887 22.3938 80.348 22.2336C80.495 22.0865 80.6594 21.9587 80.8375 21.853C81.0106 21.7513 81.1935 21.6679 81.3833 21.6042C81.5739 21.5394 81.7702 21.4931 81.9695 21.4662C82.1703 21.4388 82.3726 21.4251 82.5752 21.4251C82.734 21.4246 82.8927 21.435 83.0501 21.4562C83.1955 21.4744 83.3387 21.5082 83.4771 21.557C83.531 21.5267 83.5808 21.4895 83.6252 21.4463C83.6702 21.4038 83.7111 21.3571 83.7476 21.307C83.7822 21.2586 83.8129 21.2074 83.8394 21.154C83.8622 21.1071 83.8822 21.0589 83.8993 21.0097H85.1733C85.1356 21.1317 85.0851 21.2493 85.0227 21.3604C84.9567 21.4778 84.8806 21.5889 84.7951 21.6925C84.7059 21.7982 84.6076 21.8956 84.5014 21.9836C84.395 22.0715 84.2793 22.147 84.1563 22.2087C84.2136 22.4992 84.1929 22.7999 84.0964 23.0794L82.8946 26.8843H81.6452L82.4076 24.4327Z" fill="var(--fill-0, #633510)"/>
<path id="Vector_35" d="M84.5075 26.7699L94.0504 26.403L84.7584 25.9713L84.5075 26.7699Z" fill="var(--fill-0, #FF9015)"/>
<path id="Vector_36" d="M85.6811 22.8891L95 22.4836L85.91 22.1391L85.6811 22.8891Z" fill="var(--fill-0, #FF9015)"/>
<path id="Vector_37" d="M85.09 24.8096L94.3514 24.4103L85.347 24.0011L85.09 24.8096Z" fill="var(--fill-0, #FF9015)"/>
</g>
</svg>
