<svg width="24" height="24" viewBox="0 0 24 24" fill="none" xmlns="http://www.w3.org/2000/svg">
<g clip-path="url(#clip0_52608_5248)">
<path d="M23.5055 17.7612C23.2288 18.7894 22.4182 19.5998 21.3903 19.8767C19.5122 20.3906 11.9998 20.3906 11.9998 20.3906C11.9998 20.3906 4.48753 20.3906 2.60943 19.8962C1.60125 19.6196 0.770871 18.7892 0.4942 17.7612C0 15.8833 0 11.9887 0 11.9887C0 11.9887 0 8.07445 0.4942 6.21612C0.771054 5.18817 1.58148 4.37757 2.60961 4.10072C4.50731 3.58674 12 3.58674 12 3.58674C12 3.58674 19.5122 3.58674 21.3903 4.08112C22.4184 4.35779 23.2288 5.1684 23.5057 6.19635C23.9999 8.07445 23.9999 11.9689 23.9999 11.9689C23.9999 11.9689 24.0197 15.8833 23.5055 17.7612Z" fill="#FF0000"/>
<path d="M9.60938 8.39066L15.8564 11.9887L9.60938 15.5867V8.39066Z" fill="white"/>
</g>
<defs>
<clipPath id="clip0_52608_5248">
<rect width="24" height="24" fill="white" transform="matrix(1 0 0 -1 0 24)"/>
</clipPath>
</defs>
</svg>
